<?xml version="1.0" encoding="UTF-8" standalone="no"?>
<!-- Created with Inkscape (http://www.inkscape.org/) -->

<svg
   width="144.87735mm"
   height="54.265858mm"
   viewBox="0 0 144.87735 54.265858"
   version="1.1"
   id="svg1"
   xmlns="http://www.w3.org/2000/svg"
   xmlns:svg="http://www.w3.org/2000/svg">
  <defs
     id="defs1" />
  <rect
     style="display:inline;fill:#ff0000;stroke-width:0.38302"
     id="rect2"
     width="31.88229"
     height="21.298958"
     x="7.6007676"
     y="28.186829"
     ry="0" />
  <g
     id="layer2"
     style="display:inline"
     transform="translate(-28.514856,-146.17358)">
    <rect
       style="display:inline;fill:#ff0000;stroke-width:0.264583"
       id="rect6"
       width="54.768749"
       height="16.007292"
       x="65.616669"
       y="179.2552" />
    <rect
       style="display:inline;fill:#000000;fill-opacity:1;stroke-width:0.264583"
       id="rect58"
       width="17.665426"
       height="4.6003718"
       x="120.35227"
       y="168.16335"
       ry="0.044525869" />
    <path
       style="fill:#ff0000;fill-opacity:1;stroke-width:0.264583"
       d="m 72.234559,166.73556 c -1.040945,-0.26024 0,0 0,0 z"
       id="path43" />
    <rect
       style="display:inline;fill:#ff0000;stroke-width:0.287938"
       id="rect7"
       width="33.998959"
       height="22.489584"
       x="78.978127"
       y="152.2677" />
    <path
       style="fill:#000000;fill-opacity:1;stroke-width:0.290885"
       d="m 64.687706,166.47532 -5.347289,8.06733 H 46.444008 l -9.750941,8.06732 v 13.01182 l 27.994639,-0.26024 v 4.68426 H 28.514858 v -20.29844 l 17.300057,-13.79252 z"
       id="path45" />
    <path
       style="fill:#000000;fill-opacity:1;stroke-width:0.258221"
       d="m 83.391978,146.17689 -38.631966,53.4851 18.563411,-0.25713 33.113115,-53.22797 z"
       id="path46" />
    <path
       style="fill:#000000;fill-opacity:1;stroke-width:0.264583"
       d="m 82.644013,146.17689 27.064577,0.26023 v 9.88898 l -28.365758,-0.26023 z"
       id="path47" />
    <path
       style="fill:#000000;fill-opacity:1;stroke-width:0.263934"
       d="m 108.92788,146.69736 30.44765,52.82797 h -22.38032 l -15.35395,-51.01524 z"
       id="path48" />
    <path
       style="fill:#000000;fill-opacity:1;stroke-width:0.264583"
       d="m 132.34915,147.99854 5.20473,51.26656 z"
       id="path49" />
    <path
       style="fill:#000000;fill-opacity:1;stroke-width:0.264583"
       d="m 76.658577,171.15957 40.076393,-0.26023 1.56142,12.49134 -47.623249,-0.78071 z"
       id="path51" />
    <path
       style="fill:#ff0000;fill-opacity:1;stroke-width:0.16649"
       d="m 140.15624,150.86114 0.51522,16.39489 9.47998,-0.78071 -3.60652,-16.65512 z"
       id="path52" />
    <rect
       style="fill:#000000;fill-opacity:1;stroke-width:0.511048"
       id="rect53"
       width="23.921932"
       height="8.9247217"
       x="45.826267"
       y="165.86316"
       ry="0.042907313" />
    <rect
       style="fill:#000000;fill-opacity:1;stroke-width:0.264583"
       id="rect54"
       width="0.092007436"
       height="0.55204457"
       x="51.714741"
       y="166.5072"
       ry="0.011500929" />
    <path
       style="fill:#000000;fill-opacity:1;stroke-width:0.26657"
       d="m 65.055815,165.95185 17.665426,-19.77828 -1.394635,20.51766 z"
       id="path54" />
    <rect
       style="fill:#000000;fill-opacity:1;stroke-width:0.264583"
       id="rect55"
       width="16.745354"
       height="4.2323418"
       x="36.073475"
       y="193.92542"
       ry="0.042907313" />
    <rect
       style="fill:#000000;fill-opacity:1;stroke-width:0.262211"
       id="rect56"
       width="124.37417"
       height="6.2976899"
       x="48.954517"
       y="194.10944"
       ry="0.045889121" />
    <rect
       style="fill:#000000;fill-opacity:1;stroke-width:0.271222"
       id="rect57"
       width="20.688786"
       height="4.6875138"
       x="28.514858"
       y="195.75191"
       ry="0.046494111" />
    <rect
       style="fill:#000000;fill-opacity:1;stroke-width:0.245288"
       id="rect59"
       width="67.323059"
       height="3.6433086"
       x="82.644012"
       y="146.17688"
       ry="0.044525869" />
    <path
       style="fill:#000000;fill-opacity:1;stroke-width:0.215434"
       d="m 134.78653,194.38512 -7.56623,-45.08837 19.72183,-0.37417 2.72881,5.05139 -16.24881,0.18709 z"
       id="path66" />
    <path
       style="fill:#ff0000;fill-opacity:1;stroke-width:0.1968"
       d="m 134.51675,151.16764 2.27717,16.27672 15.21563,-1.12254 -4.14031,-14.78 z"
       id="path67" />
    <path
       style="fill:#000000;fill-opacity:1;stroke-width:0.264583"
       d="m 122.35599,149.20321 16.83798,47.70761 2.71279,-2.80633 -12.4414,-45.46254 z"
       id="path68" />
    <path
       style="fill:#000000;fill-opacity:1;stroke-width:0.264583"
       d="m 134.6103,155.0965 5.51911,-4.67721 -6.92228,-1.87089 z"
       id="path69" />
    <path
       style="fill:#000000;fill-opacity:1;stroke-width:0.264583"
       d="m 136.66827,165.57347 4.39659,3.64823 -4.02241,0.46772 z"
       id="path72" />
    <path
       style="fill:#000000;fill-opacity:1;stroke-width:0.264583"
       d="m 149.3903,182.22436 14.40583,-3.18051 -2.15152,-5.61266 -13.47038,2.61924 z"
       id="path73" />
    <path
       style="fill:#000000;fill-opacity:1;stroke-width:0.264583"
       d="m 151.54182,181.85018 12.16077,-1.40316 -1.77735,-1.96443 -10.19633,0.8419 z"
       id="path74" />
    <path
       style="fill:#ff0000;fill-opacity:1;stroke-width:0.264583"
       d="m 171.04582,169.50233 h -8.98026 l 3.78855,-1.44994 0.98221,2.38539 -4.77076,-0.98222 z"
       id="path77" />
    <path
       style="fill:#ff0000;fill-opacity:1;stroke-width:0.264583"
       d="m 165.87749,168.05239 5.56589,1.56687 0.23386,1.21608 -4.84092,-0.39756 z"
       id="path78" />
    <path
       style="fill:#000000;fill-opacity:1;stroke-width:0.264583"
       d="m 163.07346,169.03899 9.45885,10.18645 -19.31458,-9.72343 8.92968,-1.32292 z"
       id="path82" />
    <path
       style="fill:#000000;fill-opacity:1;stroke-width:0.264583"
       d="m 107.01472,147.05169 19.8314,0.93544 17.77342,48.64306 -13.47038,1.12253 z"
       id="path87" />
    <rect
       style="fill:#000000;fill-opacity:1;stroke-width:0.217526"
       id="rect87"
       width="20.48621"
       height="19.831398"
       x="130.88457"
       y="149.35155" />
    <path
       style="fill:#ff0000;fill-opacity:1;stroke-width:0.264583"
       d="m 120.4851,155.47068 4.11595,13.84456 h 26.75368 l -5.61266,-14.40583 z"
       id="path88" />
    <path
       style="fill:#ff0000;fill-opacity:1;stroke-width:0.351042"
       d="m 129.49867,177.24877 -5.43652,17.13635 h 35.33739 l -9.28739,-20.12841 -19.70738,0.272 z"
       id="path89" />
    <path
       style="fill:#ff0000;fill-opacity:1;stroke-width:0.264583"
       d="m 152.29018,181.66309 -3.74178,-8.41899 -5.61266,8.98026 z"
       id="path90" />
    <path
       style="fill:#000000;fill-opacity:1;stroke-width:0.264583"
       d="m 148.92258,163.14132 -5.61266,7.48354 11.97368,0.74836 z"
       id="path91" />
    <path
       style="fill:#000000;fill-opacity:1;stroke-width:0.260878"
       d="m 143.96984,178.48259 18.55238,20.39266 10.73129,-8.98026 -22.19012,-23.76026 -10.18563,12.90912 z"
       id="path92" />
    <path
       style="fill:#000000;fill-opacity:1;stroke-width:0.264583"
       d="m 143.73087,178.43581 2.61924,0.18709 -0.14031,1.54348 -2.15152,-0.3274 z"
       id="path94" />
    <path
       style="display:inline;fill:#000000;fill-opacity:1;stroke-width:0.264583"
       d="m 143.49701,180.16638 14.96709,16.08963 12.53494,-3.92886 -17.58633,-17.02507 z"
       id="path93" />
    <rect
       style="display:inline;fill:#ff0000;stroke-width:0.201878"
       id="rect5"
       width="21.730686"
       height="21.415201"
       x="151.4391"
       y="170.72597" />
    <path
       style="fill:#000000;fill-opacity:1;stroke-width:0.264583"
       d="m 150.77033,175.19055 17.99167,19.97604 -6.87917,0.59531 -14.55208,-20.43906 z"
       id="path96" />
    <path
       style="fill:#ff0000;fill-opacity:1;stroke-width:0.264583"
       d="m 130.06669,194.30669 -5.49011,-13.62604 19.38073,-0.0661 -0.26458,12.96458 z"
       id="path97" />
    <path
       style="fill:#000000;fill-opacity:1;stroke-width:0.264583"
       d="m 129.93308,180.44702 0.74835,15.6219 -12.2543,-16.55734 6.64165,-6.17393 z"
       id="path98" />
    <path
       style="fill:#ff0000;fill-opacity:1;stroke-width:0.264583"
       d="m 161.27043,170.99904 -0.37417,-4.49013 -2.43216,-0.28063 -0.28063,6.26747 z"
       id="path101" />
    <path
       style="fill:#ff0000;fill-opacity:1;stroke-width:0.264583"
       d="m 157.38491,168.93977 0.89297,-1.5875 0.16537,1.42213 z"
       id="path102" />
    <path
       style="fill:#000000;fill-opacity:1;stroke-width:0.264583"
       d="m 123.38596,155.08222 -3.70417,4.36562 -2.51354,-5.15937 5.68854,-1.7198 z"
       id="path103" />
    <path
       style="fill:#000000;fill-opacity:1;stroke-width:0.264583"
       d="m 144.15575,153.89159 2.64583,2.4474 c 0,0 0.13229,-1.19063 0.26458,-1.7198 0.1323,-0.52916 -2.91041,-0.7276 -2.91041,-0.7276 z"
       id="path104" />
    <path
       style="fill:#000000;fill-opacity:1;stroke-width:0.264583"
       d="m 150.37346,147.74003 7.40833,20.83594 h 15.61042 v 31.68385 h -5.95313 v -27.8474 -3.63802 -0.19017 l -9.66039,-0.008 z"
       id="path106" />
    <path
       style="fill:#000000;fill-opacity:1;stroke-width:0.264583"
       d="m 157.50067,168.47675 h 8.56589 1.47174 v 1.53789 l -11.34401,-0.0165 0.0496,-1.53789 z"
       id="path107" />
    <rect
       style="fill:#000000;fill-opacity:1;stroke-width:0.264583"
       id="rect107"
       width="11.773958"
       height="1.4882812"
       x="156.17775"
       y="168.67519" />
    <rect
       style="fill:#000000;fill-opacity:1;stroke-width:0.264583"
       id="rect108"
       width="13.526823"
       height="1.2567708"
       x="154.63986"
       y="169.79965" />
    <path
       style="fill:#000000;fill-opacity:1;stroke-width:0.264423"
       d="m 150.00454,146.17645 9.89392,23.06105 -8.65968,0.13222 z"
       id="path108" />
    <rect
       style="fill:#000000;fill-opacity:1;stroke-width:0.234117"
       id="rect109"
       width="14.794914"
       height="4.3030396"
       x="154.53523"
       y="165.57346" />
    <text
       xml:space="preserve"
       style="font-size:9.50033px;text-align:start;writing-mode:lr-tb;direction:ltr;text-anchor:start;fill:#000000;fill-opacity:1;stroke-width:0.791693"
       x="240.02502"
       y="-65.967087"
       id="text109"
       transform="matrix(0.49537357,1.0086712,-0.48620282,1.0286807,0,0)"><tspan
         id="tspan109"
         style="stroke-width:0.791693"
         x="240.02502"
         y="-65.967087">A</tspan></text>
    <text
       xml:space="preserve"
       style="font-size:10.2577px;text-align:start;writing-mode:lr-tb;direction:ltr;text-anchor:start;fill:#000000;fill-opacity:1;stroke-width:0.854812"
       x="-228.92276"
       y="16.495628"
       id="text110"
       transform="matrix(-0.71247914,-0.72303006,-0.19362442,1.2070581,0,0)"><tspan
         id="tspan110"
         style="stroke-width:0.854812"
         x="-228.92276"
         y="16.495628">M</tspan></text>
    <text
       xml:space="preserve"
       style="font-size:10.259px;text-align:start;writing-mode:lr-tb;direction:ltr;text-anchor:start;fill:#000000;fill-opacity:1;stroke-width:0.854911"
       x="228.2527"
       y="1.6867491"
       id="text111"
       transform="matrix(0.69523862,0.79643347,-0.15412923,1.2617917,0,0)"><tspan
         id="tspan111"
         style="stroke-width:0.854911"
         x="228.2527"
         y="1.6867491">D</tspan></text>
    <text
       xml:space="preserve"
       style="font-size:10.5313px;text-align:start;writing-mode:lr-tb;direction:ltr;text-anchor:start;fill:#000000;fill-opacity:1;stroke-width:0.877596"
       x="216.98953"
       y="58.857731"
       id="text112"
       transform="matrix(0.74928656,0.5148904,0,1.3346029,0,0)"><tspan
         id="tspan112"
         style="stroke-width:0.877596"
         x="216.98953"
         y="58.857731">C</tspan></text>
    <path
       style="fill:#000000;fill-opacity:1;stroke-width:0.264583"
       d="m 155.36747,170.79185 c 0.16536,0.0992 12.46849,13.65912 12.46849,13.65912 l 0.89297,-15.41198 -12.79922,-0.0331 z"
       id="path112" />
    <path
       style="fill:#000000;fill-opacity:1;stroke-width:0.264583"
       d="m 166.76109,193.04992 h 1.15755 l 0.0331,0.97565 -1.57096,-0.23151 z"
       id="path113" />
    <path
       style="fill:#000000;fill-opacity:1;stroke-width:0.264583"
       d="m 167.05874,192.0164 0.71934,0.0248 -0.0165,1.24023 c 0,0 -1.19889,-0.0331 -1.18235,-0.11575 0.0165,-0.0827 0.47955,-1.14929 0.47955,-1.14929 z"
       id="path114" />
    <rect
       style="fill:#000000;stroke-width:0.264583"
       id="rect1"
       width="27.221401"
       height="11.27208"
       x="122.21566"
       y="169.31525"
       ry="0" />
    <rect
       style="fill:#000000;stroke-width:0.264583"
       id="rect8"
       width="9.260417"
       height="8.8635416"
       x="120.31927"
       y="187.1927" />
    <path
       style="fill:#000000;stroke-width:0.264583"
       d="m 154.66971,192.17514 -3.74616,-4.02094 3.30767,-5.1581 5.7062,8.30206 0.44434,1.49671 -3.27405,0.0935 z"
       id="path8" />
    <path
       style="fill:#000000;stroke-width:0.264583"
       d="m 150.46606,186.55079 2.5257,2.08136 2.45554,-5.14494 -3.67162,-3.95225 -2.24506,2.22168 z"
       id="path9" />
    <path
       style="fill:#000000;stroke-width:0.264583"
       d="m 151.15976,174.17851 4.05144,-3.78685 -0.44649,-1.9513 -4.03489,0.23151 z"
       id="path10" />
    <path
       style="fill:#000000;stroke-width:0.264583"
       d="m 150.00221,146.19056 -0.27285,-0.008 -0.008,3.44785 0.83509,-0.26458 z"
       id="path11" />
    <rect
       style="fill:#000000;stroke-width:0.272853"
       id="rect11"
       width="0.21083984"
       height="0.069246419"
       x="149.7955"
       y="146.1761" />
    <path
       style="fill:#000000;stroke-width:0.264583"
       d="m 169.31679,165.57956 4.05144,2.97656 -3.853,1.60403 -1.90169,-3.57187 z"
       id="path1" />
  </g>
</svg>
